# Blender v2.77 (sub 0) OBJ File: 'm.blend'
# www.blender.org
mtllib m.mtl
o m
v 0.029286 0.479269 0.063956
v -0.011026 0.528101 0.063468
v -0.069475 0.550764 0.063452
v -0.229250 0.504480 0.063704
v -0.253191 0.554737 0.063202
v -0.383220 0.514783 0.063601
v -0.367452 0.448193 0.064267
v -0.367601 0.000562 0.068740
v 0.120547 0.540515 0.063186
v 0.195874 0.549519 0.063202
v 0.295676 0.515228 0.063536
v 0.334181 0.417118 0.064577
v 0.334181 0.000562 0.068740
v 0.190701 0.000562 0.068740
v 0.190701 0.390482 0.064843
v 0.161331 0.422090 0.064880
v 0.060672 0.386042 0.064888
v 0.060672 0.000562 0.068740
v -0.082808 0.000562 0.068740
v -0.082808 0.386042 0.064888
v -0.103721 0.424001 0.064786
v -0.217321 0.390482 0.064843
v -0.217321 0.000562 0.068740
v 0.120164 0.419746 0.064444
v -0.182390 0.417166 0.064414
v -0.183706 0.531593 0.063434
v -0.129405 0.551664 0.063653
v -0.139720 0.429910 0.064123
v -0.085836 0.403500 0.064112
v 0.011537 0.505519 0.063277
v 0.087315 0.408153 0.064374
v 0.071709 0.397120 0.064471
v 0.181327 0.407248 0.064537
v 0.050181 0.499133 0.063282
v 0.075845 0.518827 0.063448
v 0.252546 0.540883 0.063114
v 0.319494 0.480944 0.063716
v 0.330331 0.445179 0.064074
v -0.367452 0.448193 0.064267
v 0.029257 0.477963 -0.065504
v -0.011055 0.526795 -0.065992
v -0.069504 0.549458 -0.066009
v -0.229279 0.503174 -0.065756
v -0.253221 0.553431 -0.066258
v -0.383249 0.513477 -0.065859
v -0.367482 0.446887 -0.065194
v -0.367631 -0.000744 -0.060720
v 0.120517 0.539210 -0.066275
v 0.195845 0.548214 -0.066258
v 0.295647 0.513922 -0.065925
v 0.334152 0.415812 -0.064883
v 0.334152 -0.000744 -0.060720
v 0.190672 -0.000744 -0.060720
v 0.190672 0.389176 -0.064617
v 0.161302 0.420784 -0.064580
v 0.060643 0.384737 -0.064573
v 0.060642 -0.000744 -0.060720
v -0.082837 -0.000744 -0.060720
v -0.082837 0.384737 -0.064573
v -0.103750 0.422695 -0.064674
v -0.217350 0.389176 -0.064617
v -0.217350 -0.000744 -0.060720
v 0.120135 0.418441 -0.065017
v -0.182420 0.415861 -0.065047
v -0.183735 0.530287 -0.066027
v -0.129434 0.550358 -0.065807
v -0.139749 0.428604 -0.065337
v -0.085865 0.402194 -0.065349
v 0.011507 0.504214 -0.066184
v 0.087286 0.406848 -0.065086
v 0.071680 0.395815 -0.064989
v 0.181298 0.405943 -0.064924
v 0.050152 0.497827 -0.066178
v 0.075816 0.517522 -0.066012
v 0.252517 0.539578 -0.066347
v 0.319465 0.479638 -0.065744
v 0.330302 0.443873 -0.065386
v -0.367482 0.446887 -0.065194
vn 0.0000 0.0000 1.0000
vn 0.0000 0.0100 1.0000
vn 0.0011 0.0101 0.9999
vn -0.0008 0.0142 0.9999
vn -0.0016 0.0120 0.9999
vn 0.0022 0.0167 0.9999
vn 0.0035 0.0136 0.9999
vn 0.0015 -0.0021 1.0000
vn 0.0001 0.0137 0.9999
vn 0.0077 0.0058 1.0000
vn 0.0035 0.0096 0.9999
vn 0.0006 0.0065 1.0000
vn 0.0038 0.0053 1.0000
vn 0.0019 0.0105 0.9999
vn -0.0018 0.0085 1.0000
vn -0.0059 0.0091 0.9999
vn -0.0019 0.0120 0.9999
vn -0.0044 0.0081 1.0000
vn 0.0058 0.0120 0.9999
vn 0.0123 0.0126 0.9998
vn 0.0006 0.0096 1.0000
vn -0.0079 0.0195 0.9998
vn -0.0036 0.0073 1.0000
vn 0.0038 0.0095 0.9999
vn -0.0094 0.0027 1.0000
vn -0.0067 0.0122 0.9999
vn -0.0012 0.0049 1.0000
vn -0.0002 0.0145 0.9999
vn 0.0012 0.0128 0.9999
vn 0.0009 0.0142 0.9999
vn 0.0025 0.0089 1.0000
vn -0.5256 0.8507 -0.0085
vn -0.6499 0.7600 -0.0075
vn -0.5250 0.8510 -0.0085
vn -0.2876 -0.9577 0.0097
vn -0.7505 -0.6608 0.0068
vn -0.2858 -0.9582 0.0097
vn -0.2814 0.9595 -0.0096
vn 0.0000 -0.9999 0.0101
vn 0.7714 0.6363 -0.0066
vn 0.5471 0.8370 -0.0086
vn 0.5453 0.8382 -0.0086
vn -0.9675 -0.2527 0.0028
vn -1.0000 0.0000 0.0002
vn -0.9678 -0.2515 0.0028
vn 0.0162 0.9998 -0.0101
vn 0.0161 0.9998 -0.0101
vn 0.9233 -0.3841 0.0037
vn 0.6457 -0.7636 0.0076
vn 0.9252 -0.3794 0.0036
vn 0.3372 0.9414 -0.0096
vn 0.4592 -0.8883 0.0089
vn 0.1975 -0.9803 0.0098
vn 0.1960 -0.9806 0.0098
vn 1.0000 -0.0000 -0.0002
vn 0.4597 -0.8880 0.0089
vn 0.9001 0.4357 -0.0046
vn 0.6818 0.7315 -0.0075
vn 0.6817 0.7316 -0.0075
vn -0.9962 -0.0866 0.0011
vn -0.9964 -0.0848 0.0011
vn -0.1689 0.9856 -0.0099
vn -0.4307 0.9025 -0.0090
vn -0.1684 0.9857 -0.0099
vn 0.9770 0.2134 -0.0024
vn 0.9002 0.4354 -0.0046
vn 0.9977 0.0683 -0.0009
vn 0.9977 0.0679 -0.0009
vn 0.8962 -0.4437 0.0043
vn 0.8966 -0.4427 0.0043
vn 0.8285 0.5600 -0.0058
vn -0.4880 -0.8728 0.0089
vn -0.9028 -0.4299 0.0045
vn -0.4849 -0.8745 0.0089
vn 0.4544 -0.8907 0.0089
vn 0.4537 -0.8911 0.0089
vn 0.0627 -0.9980 0.0101
vn 0.1916 0.9814 -0.0099
vn 0.1909 0.9816 -0.0099
vn -0.4311 0.9023 -0.0090
vn -0.5115 0.8592 -0.0085
vn -1.0000 0.0003 0.0002
vn -0.9731 -0.2304 0.0025
vn 0.9028 0.4300 -0.0045
vn -0.6891 0.7246 -0.0072
vn -0.2937 0.9558 -0.0096
vn -0.0123 -0.0126 -0.9998
vn -0.0046 -0.0126 -0.9999
vn -0.0012 -0.0152 -0.9999
vn -0.6498 0.7601 -0.0075
vn -0.7517 -0.6595 0.0068
vn -0.2815 0.9595 -0.0096
vn 0.6449 -0.7642 0.0076
vn 0.9769 0.2138 -0.0024
vn -0.9027 -0.4302 0.0045
vn 0.0646 -0.9979 0.0101
vn 0.0004 -0.0138 -0.9999
vn 0.0008 -0.0142 -0.9999
vn 0.0007 -0.0139 -0.9999
vn -0.0000 -0.0100 -1.0000
vn 0.0001 -0.0093 -1.0000
vn -0.0014 -0.0085 -1.0000
vn -0.0066 -0.0092 -0.9999
vn -0.0012 -0.0128 -0.9999
vn -0.0010 -0.0115 -0.9999
vn -0.0036 -0.0073 -1.0000
vn 0.0044 -0.0081 -1.0000
vn 0.0019 -0.0120 -0.9999
vn 0.0077 -0.0097 -0.9999
vn -0.0001 -0.0109 -0.9999
vn 0.0007 -0.0092 -1.0000
vn -0.0077 -0.0058 -1.0000
vn -0.0018 -0.0089 -1.0000
vn -0.0046 0.0009 -1.0000
vn 0.0024 -0.0070 -1.0000
vn 0.0071 -0.0065 -1.0000
vn -0.0006 -0.0096 -1.0000
vn 0.0020 -0.0064 -1.0000
vn -0.0038 -0.0095 -0.9999
vn -0.0011 -0.0101 -0.9999
vn -0.0035 -0.0096 -0.9999
vn -0.0075 -0.0129 -0.9999
vn -0.0000 -0.0281 -0.9996
usemtl mat_m
s off
f 7//1 78//1 39//1
f 7//1 46//1 78//1
s 1
f 8//2 23//2 22//3
f 13//2 12//4 15//5
f 1//6 30//7 21//8
f 14//2 13//2 15//5
f 15//5 12//4 38//9
f 2//10 3//11 21//8
f 16//12 33//13 11//14
f 3//11 27//15 21//8
f 24//16 9//17 35//18
f 19//2 18//2 17//19
f 17//19 32//20 1//6
f 4//21 5//2 6//2
f 17//19 1//6 20//22
f 20//22 19//2 17//19
f 26//23 25//24 28//25
f 7//2 8//2 22//3
f 6//2 7//2 4//21
f 22//3 4//21 7//2
f 21//8 27//15 26//23
f 25//24 26//23 4//21
f 25//24 4//21 22//3
f 28//25 21//8 26//23
f 1//6 21//8 29//26
f 29//26 20//22 1//6
f 21//8 30//7 2//10
f 1//6 31//27 24//16
f 31//27 1//6 32//20
f 9//17 24//16 16//12
f 33//13 15//5 11//14
f 35//18 34//28 24//16
f 24//16 34//28 1//6
f 9//17 16//12 10//29
f 16//12 11//14 36//30
f 36//30 10//29 16//12
f 38//9 37//31 15//5
f 15//5 37//31 11//14
f 74//32 34//33 35//34
f 55//35 33//36 16//37
f 9//38 74//32 35//34
f 14//39 52//39 13//39
f 30//40 41//41 2//42
f 54//43 14//44 15//45
f 49//46 9//38 10//47
f 56//48 32//49 17//50
f 36//51 49//46 10//47
f 31//52 63//53 24//54
f 18//55 56//48 17//50
f 32//49 70//56 31//52
f 19//39 57//39 18//39
f 37//57 50//58 11//59
f 59//60 19//44 20//61
f 66//62 26//63 27//64
f 38//65 76//66 37//57
f 13//55 51//67 12//68
f 23//55 61//69 22//70
f 40//71 30//40 1//71
f 33//36 54//43 15//45
f 8//39 62//39 23//39
f 60//72 29//73 21//74
f 51//67 38//65 12//68
f 61//69 25//75 22//70
f 64//76 28//77 25//75
f 2//42 42//78 3//79
f 65//80 4//81 26//63
f 3//79 66//62 27//64
f 24//54 55//35 16//37
f 28//77 60//72 21//74
f 50//58 36//51 11//59
f 46//82 8//82 7//82
f 45//83 7//83 6//83
f 43//84 5//84 4//84
f 34//33 40//85 1//85
f 29//73 59//60 20//61
f 44//86 6//86 5//86
f 71//87 56//88 40//89
f 74//32 73//90 34//33
f 55//35 72//91 33//36
f 9//38 48//92 74//32
f 14//39 53//39 52//39
f 30//40 69//40 41//41
f 54//43 53//44 14//44
f 49//46 48//92 9//38
f 56//48 71//93 32//49
f 36//51 75//51 49//46
f 31//52 70//56 63//53
f 18//55 57//55 56//48
f 32//49 71//93 70//56
f 19//39 58//39 57//39
f 37//57 76//66 50//58
f 59//60 58//44 19//44
f 66//62 65//80 26//63
f 38//65 77//94 76//66
f 13//55 52//55 51//67
f 23//55 62//55 61//69
f 40//71 69//40 30//40
f 33//36 72//91 54//43
f 8//39 47//39 62//39
f 60//72 68//95 29//73
f 51//67 77//94 38//65
f 61//69 64//76 25//75
f 64//76 67//96 28//77
f 2//42 41//41 42//78
f 65//80 43//81 4//81
f 3//79 42//78 66//62
f 24//54 63//53 55//35
f 28//77 67//96 60//72
f 50//58 75//51 36//51
f 46//82 47//82 8//82
f 45//83 46//83 7//83
f 43//84 44//84 5//84
f 34//33 73//90 40//85
f 29//73 68//95 59//60
f 44//86 45//86 6//86
f 77//97 51//98 54//99
f 52//100 53//100 54//99
f 51//98 52//100 54//99
f 50//101 76//102 72//103
f 49//104 75//105 55//106
f 74//107 48//108 63//109
f 40//89 73//110 70//111
f 41//112 69//113 60//114
f 66//115 60//114 67//116
f 43//117 65//118 64//119
f 45//100 44//100 43//117
f 62//100 47//100 61//120
f 46//100 45//100 43//117
f 65//118 66//115 67//116
f 73//110 74//107 63//109
f 42//121 60//114 66//115
f 47//100 46//100 61//120
f 61//120 46//100 43//117
f 48//108 55//106 63//109
f 64//119 61//120 43//117
f 67//116 64//119 65//118
f 49//104 55//106 48//108
f 42//121 41//112 60//114
f 60//114 69//113 68//122
f 77//97 54//99 72//103
f 77//97 72//103 76//102
f 69//113 40//89 68//122
f 68//122 56//88 59//123
f 72//103 75//105 50//101
f 72//103 55//106 75//105
f 57//100 58//100 59//123
f 68//122 40//89 56//88
f 73//110 63//109 70//111
f 56//88 57//100 59//123
f 40//89 70//111 71//87
